<svg xmlns="http://www.w3.org/2000/svg" width="86" height="86" viewBox="0 0 86 86"><g transform="translate(-494 -1315)"><rect width="86" height="86" transform="translate(494 1315)" fill="#fff"/><g transform="translate(502.25 1275.931)"><g transform="translate(6.581 53)"><path d="M96.084,53a30.889,30.889,0,0,1,20.588,7.68,25.144,25.144,0,0,1,8.5,18.627h0a24.932,24.932,0,0,1-8.578,18.627,30.463,30.463,0,0,1-20.424,7.68h-.082c-1.062,0-2.124-.082-3.186-.163-.98-.082-1.961-.245-2.859-.408l-13.153,8.5.082-14.46A28.7,28.7,0,0,1,69.7,90.336,24.177,24.177,0,0,1,67,79.307v-.082A24.76,24.76,0,0,1,75.578,60.68,30.52,30.52,0,0,1,96.084,53ZM80.4,73.915A4.87,4.87,0,0,1,83.911,75.3a5.085,5.085,0,0,1,1.471,3.513,4.968,4.968,0,0,1-8.5,3.513A4.87,4.87,0,0,1,75.5,78.816,5.009,5.009,0,0,1,76.885,75.3,4.87,4.87,0,0,1,80.4,73.915Zm2.369,2.533a3.323,3.323,0,0,0-2.369-.98,3.475,3.475,0,0,0-2.369.98,3.143,3.143,0,0,0-.98,2.369,3.325,3.325,0,0,0,.98,2.451,3.475,3.475,0,0,0,2.369.98,3.323,3.323,0,0,0,2.369-.98,3.4,3.4,0,0,0,1.062-2.451A3.215,3.215,0,0,0,82.768,76.447Zm29-2.533a4.87,4.87,0,0,1,3.513,1.389,5.085,5.085,0,0,1,1.471,3.513,4.943,4.943,0,0,1-9.885,0,5.085,5.085,0,0,1,1.471-3.513A4.816,4.816,0,0,1,111.77,73.915Zm2.451,2.533a3.681,3.681,0,0,0-2.451-.98,3.639,3.639,0,0,0-2.369.98,3.475,3.475,0,0,0-.98,2.369,3.681,3.681,0,0,0,.98,2.451,3.639,3.639,0,0,0,2.369.98,3.351,3.351,0,0,0,3.431-3.431A3.475,3.475,0,0,0,114.221,76.447ZM96.084,73.915A4.87,4.87,0,0,1,99.6,75.3a5.085,5.085,0,0,1,1.471,3.513A5.021,5.021,0,0,1,96.084,83.8a4.748,4.748,0,0,1-3.431-1.471,4.937,4.937,0,0,1-1.471-3.513A5.085,5.085,0,0,1,92.653,75.3,4.816,4.816,0,0,1,96.084,73.915Zm2.451,2.533a3.681,3.681,0,0,0-2.451-.98,3.639,3.639,0,0,0-2.369.98,3.475,3.475,0,0,0-.98,2.369,3.681,3.681,0,0,0,.98,2.451,3.639,3.639,0,0,0,2.369.98,3.351,3.351,0,0,0,3.431-3.431A3.475,3.475,0,0,0,98.535,76.447ZM115.61,61.823a29.024,29.024,0,0,0-19.526-7.271h0A28.966,28.966,0,0,0,76.64,61.823a23.413,23.413,0,0,0-8.088,17.4v.082A23.364,23.364,0,0,0,71.085,89.6a26.455,26.455,0,0,0,7.189,8.5l.327.163-.082,12.418,11.193-7.353.327.082a17.958,17.958,0,0,0,3.023.49c.98.082,2.042.163,3.023.163h.082a28.91,28.91,0,0,0,19.362-7.271,23.452,23.452,0,0,0,8.088-17.483h0A23.373,23.373,0,0,0,115.61,61.823Z" transform="translate(-67 -53)" fill="#2c3d43"/></g></g></g></svg>