<svg xmlns="http://www.w3.org/2000/svg" width="86" height="86" viewBox="0 0 86 86"><g transform="translate(-942 -1315)"><rect width="86" height="86" transform="translate(942 1315)" fill="#fff"/><g transform="translate(952.532 1325.531)"><g transform="translate(4.254 4)"><path d="M33.485,6A27.231,27.231,0,1,0,60.715,33.231,27.262,27.262,0,0,0,33.485,6Z" transform="translate(-5.016 -4.762)" fill="none"/><path d="M32.722,4A28.468,28.468,0,1,0,61.191,32.468,28.5,28.5,0,0,0,32.722,4Zm0,55.7A27.231,27.231,0,1,1,59.953,32.468,27.261,27.261,0,0,1,32.722,59.7Z" transform="translate(-4.254 -4)" fill="#2c3d43"/></g><path d="M43.523,68.982a14.573,14.573,0,0,1-10.337-4.275.619.619,0,0,1,.875-.875,13.4,13.4,0,0,0,18.924,0,.619.619,0,0,1,.875.875A14.576,14.576,0,0,1,43.523,68.982Z" transform="translate(-10.957 -22.734)" fill="#2c3d43"/><path d="M69.4,45.5a.616.616,0,0,1-.461-.206,7.765,7.765,0,0,0-10.952-.606.619.619,0,1,1-.826-.922,9.006,9.006,0,0,1,12.7.7A.619.619,0,0,1,69.4,45.5Z" transform="translate(-20.084 -14.284)" fill="#2c3d43"/><path d="M22.56,45.415a.619.619,0,0,1-.455-1.038,9,9,0,0,1,12.709-.517.619.619,0,0,1-.839.91,7.766,7.766,0,0,0-10.96.446A.617.617,0,0,1,22.56,45.415Z" transform="translate(-6.741 -14.285)" fill="#2c3d43"/></g></g></svg>