<svg xmlns="http://www.w3.org/2000/svg" width="81.603" height="81.603" viewBox="0 0 81.603 81.603"><g transform="translate(-1.23 -1.23)"><g transform="translate(1.23 1.23)"><path d="M77.233,21.538H62.524V6.829a5.6,5.6,0,0,0-5.591-5.6H27.129a5.6,5.6,0,0,0-5.591,5.6V21.538H6.829a5.6,5.6,0,0,0-5.6,5.591V56.934a5.6,5.6,0,0,0,5.6,5.591H21.538V77.233a5.6,5.6,0,0,0,5.591,5.6H56.934a5.6,5.6,0,0,0,5.591-5.6V62.524H77.233a5.6,5.6,0,0,0,5.6-5.591V27.129A5.6,5.6,0,0,0,77.233,21.538Zm-55.7,39.346H6.829a3.955,3.955,0,0,1-3.951-3.95V27.129a3.955,3.955,0,0,1,3.951-3.951H21.538ZM60.884,77.233a3.955,3.955,0,0,1-3.95,3.951H27.129a3.955,3.955,0,0,1-3.951-3.951V62.524H60.884Zm0-16.349H23.178V23.178H60.884Zm0-39.346H23.178V6.829a3.955,3.955,0,0,1,3.951-3.951H56.934a3.955,3.955,0,0,1,3.95,3.951Zm20.3,35.4a3.955,3.955,0,0,1-3.951,3.95H62.524V23.178H77.233a3.955,3.955,0,0,1,3.951,3.951Z" transform="translate(-1.23 -1.23)" fill="#2c3d43"/></g><g transform="translate(29.915 32.314)"><path d="M51.379,36.48a6.562,6.562,0,0,0-5.159,2.478l-.344.432-.344-.432A6.612,6.612,0,0,0,33.76,43.094a6.637,6.637,0,0,0,1.834,4.559l9.7,9.7a.828.828,0,0,0,1.155.009l9.779-9.779a6.608,6.608,0,0,0-4.85-11.1ZM54.985,46.5l-9.109,9.118-9.1-9.109A4.922,4.922,0,0,1,35.4,43.094a4.966,4.966,0,0,1,9.691-1.534.824.824,0,0,0,1.57,0A4.964,4.964,0,1,1,54.985,46.5Z" transform="translate(-33.76 -36.48)" fill="#2c3d43"/></g></g></svg>