<svg xmlns="http://www.w3.org/2000/svg" width="86" height="86" viewBox="0 0 86 86"><g transform="translate(-44 -1315)"><rect width="86" height="86" transform="translate(44 1315)" fill="#fff"/><g transform="translate(-12.128 1400.771)"><g transform="translate(83.787 -75)"><rect width="28.594" height="51.029" transform="translate(3.045 5.162)" fill="none"/><path d="M53.519,8.553a.171.171,0,0,0-.171-.17H42.072c-.188,0-.188.341,0,.341H53.349A.171.171,0,0,0,53.519,8.553Z" transform="translate(-30.369 -5.96)" fill="none"/><path d="M52.051,89.607l.36-1.821a.713.713,0,0,0,.014-.139.706.706,0,0,0-.706-.7H45.1a.709.709,0,0,0-.693.843l.36,1.821a.708.708,0,0,0,.693.569h5.9A.708.708,0,0,0,52.051,89.607Z" transform="translate(-31.067 -28.255)" fill="none"/><path d="M60.042,66.146V8.874a2.888,2.888,0,0,0-2.885-2.885h-27.5a2.888,2.888,0,0,0-2.885,2.885V66.145a2.888,2.888,0,0,0,2.885,2.885h27.5A2.887,2.887,0,0,0,60.042,66.146ZM37.771,8.753a.879.879,0,1,1,0-1.758H49.048a.879.879,0,1,1,0,1.758ZM28.4,62.181V9.735h30.01V62.181ZM40.459,67.91a1.416,1.416,0,0,1-1.387-1.141l-.36-1.821A1.409,1.409,0,0,1,40.1,63.26h6.62a1.412,1.412,0,0,1,1.387,1.689l-.36,1.821A1.418,1.418,0,0,1,46.36,67.91h-5.9Z" transform="translate(-26.068 -5.281)" fill="none"/><path d="M52.465,89.463l.36-1.821a1.413,1.413,0,0,0-1.387-1.689h-6.62a1.409,1.409,0,0,0-1.387,1.688l.36,1.821A1.418,1.418,0,0,0,45.178,90.6h5.9A1.417,1.417,0,0,0,52.465,89.463Zm-7.287.432a.708.708,0,0,1-.693-.569l-.36-1.821a.709.709,0,0,1,.693-.843h6.62a.706.706,0,0,1,.706.7.773.773,0,0,1-.014.139l-.36,1.821a.708.708,0,0,1-.693.569Z" transform="translate(-30.787 -27.975)" fill="#2c3d43"/><path d="M60.47,65.865V8.593A3.6,3.6,0,0,0,56.877,5H29.38a3.6,3.6,0,0,0-3.593,3.593V65.864a3.6,3.6,0,0,0,3.593,3.593h27.5A3.6,3.6,0,0,0,60.47,65.865ZM29.38,68.75A2.888,2.888,0,0,1,26.5,65.865V8.593A2.888,2.888,0,0,1,29.38,5.708h27.5a2.888,2.888,0,0,1,2.885,2.885V65.864a2.888,2.888,0,0,1-2.885,2.885H29.38Z" transform="translate(-25.787 -5)" fill="#2c3d43"/><path d="M53.935,8.273a.88.88,0,0,0-.879-.879H41.779a.879.879,0,1,0,0,1.758H53.056A.88.88,0,0,0,53.935,8.273Zm-12.155.17c-.188,0-.188-.341,0-.341H53.056a.171.171,0,1,1,0,.342H41.779Z" transform="translate(-30.076 -5.679)" fill="#2c3d43"/><path d="M29.049,11.219V63.665h30.01V11.219Zm29.3.708V62.957H29.757V11.927Z" transform="translate(-26.713 -6.765)" fill="#2c3d43"/></g></g></g></svg>